<?xml version="1.0" encoding="utf-8"?><svg xmlns="http://www.w3.org/2000/svg" xmlns:xlink="http://www.w3.org/1999/xlink"><symbol viewBox="136 135.9 23 24.8" id="disconnect"><path d="M150.9 138.3v1.9c3.6 1.4 6.2 4.9 6.2 9 0 5.4-4.4 9.7-9.7 9.7-5.4 0-9.7-4.4-9.7-9.7 0-4.1 2.6-7.6 6.2-9v-1.9c-4.6 1.5-7.9 5.8-7.9 10.9 0 6.3 5.1 11.5 11.5 11.5 6.3 0 11.5-5.1 11.5-11.5-.2-5.1-3.5-9.4-8.1-10.9z"/><path d="M146.5 135.9h1.8v8.8h-1.8z"/></symbol><symbol viewBox="0 0 24 24" id="home"><path d="M21 13v10h-6v-6H9v6H3V13H0L12 1l12 12h-3zm-1-5.907V2h-3v2.093l3 3z"/></symbol><symbol viewBox="0 0 24 24" id="key"><path d="M9 12.242v7.894L4.709 21 4 17.173l4.005-5.909c.331.382.352.46.995.978zm2 1.176v8.015L13.732 24 17 21.433l-1.052-1.109L17 19.216l-1.052-1.108L17 17v-3.583a7.98 7.98 0 0 1-3.001.583A7.988 7.988 0 0 1 11 13.418zm7.242-11.661c-2.131-2.131-5.424-2.25-7.687-.651-1.174.821-1.96 1.94-2.335 3.378C6.556 4.397 5.5 3.579 5.5 3c0-.6 1.128-1.46 2.898-1.494.42-.524.67-.822 1.42-1.36A6.52 6.52 0 0 0 8.5 0C6.015 0 4 1.343 4 3c0 1.936 2.526 3 4.5 3 2.818 0 5.337-1.892 4.252-3.967.567-.912 1.682-.902 2.309-.275.975.975.24 2.625-1.146 2.544-.862 2.006-3.376 3-5.794 2.879A5.998 5.998 0 0 0 20 5.999a5.98 5.98 0 0 0-1.758-4.242z"/></symbol><symbol viewBox="0 0 253.5 253.5" id="keyhole"><title>keyhole</title><path d="M126.75 0A126.75 126.75 0 1 0 253.5 126.75 126.75 126.75 0 0 0 126.75 0zM93.68 200.56c.32-1.43.54-2.69.88-3.92q8.43-30.5 16.94-61.08c1.15-4.16 2.19-8.36 3.43-12.49.5-1.64 0-2.35-1.46-2.95a34.82 34.82 0 0 1-15.48-11.98c-7.81-10.61-8.84-26.07-2-37.58 5.46-9.23 13.35-15.1 23.88-17a34.65 34.65 0 0 1 40.38 40.73c-2 10.6-8 18.38-17.09 23.8-1.7 1-1.87 1.89-1.41 3.65q8 30.32 15.77 60.68c1.34 5.15 2.69 10.29 4 15.44.21.81.38 1.63.63 2.73z"/></symbol><symbol viewBox="0 0 24 24" id="stats"><path d="M4 17.162L2 18V5.028L14 0v2.507L4 6.697v10.465zM22 6l-12 5.028V24l12-5.028V6zM8 9.697l10-4.19V3L6 8.028V21l2-.838V9.697z"/></symbol><symbol viewBox="0 0 24 24" id="users"><path d="M10.644 17.08c2.866-.662 4.539-1.241 3.246-3.682C9.958 5.971 12.848 2 17.001 2c4.235 0 7.054 4.124 3.11 11.398-1.332 2.455.437 3.034 3.242 3.682 2.483.574 2.647 1.787 2.647 3.889V22H8c0-2.745-.22-4.258 2.644-4.92zM-2 22h7.809c-.035-8.177 3.436-5.313 3.436-11.127C9.245 8.362 7.606 7 5.497 7 2.382 7 .215 9.979 3.164 15.549c.969 1.83-1.031 2.265-3.181 2.761C-1.879 18.74-2 19.65-2 21.227V22z"/></symbol></svg>