<?xml version="1.0" encoding="utf-8"?><!DOCTYPE svg PUBLIC "-//W3C//DTD SVG 1.1//EN" "http://www.w3.org/Graphics/SVG/1.1/DTD/svg11.dtd"><svg xmlns="http://www.w3.org/2000/svg" xmlns:xlink="http://www.w3.org/1999/xlink"><symbol viewBox="134.4 133.1 21 21.1" id="account"><path d="M150.2 138.4c0 3-2.3 5.2-5.3 5.2s-5.2-2.3-5.2-5.2c0-3 2.3-5.3 5.2-5.3 3 .1 5.3 2.4 5.3 5.3zM134.4 152.4c0-3.5 7-5.4 10.5-5.4s10.5 1.9 10.5 5.4v1.8h-21v-1.8z"/></symbol><symbol viewBox="0 0 118.3 118.3" id="arrow"><path d="M59.2 118.3c32.7 0 59.2-26.5 59.2-59.2C118.3 26.5 91.9 0 59.2 0S0 26.5 0 59.2s26.5 59.1 59.2 59.1zM61 44.4V31.7l35.6 27.5L61 86.6V74L22.6 59.2 61 44.4z"/></symbol><symbol viewBox="105.3 97.3 23.5 23.5" id="assistance"><path d="M117 120.8c-6.5 0-11.8-5.3-11.8-11.8s5.3-11.8 11.8-11.8 11.8 5.3 11.8 11.8-5.3 11.8-11.8 11.8zm0-22c-5.7 0-10.3 4.6-10.3 10.3s4.6 10.3 10.3 10.3 10.3-4.6 10.3-10.3-4.6-10.3-10.3-10.3z"/><path d="M116.6 110.8c0-.7.1-1.2.2-1.4.1-.3.4-.6.9-1.1.6-.6 1-1.1 1.2-1.5.3-.4.4-.9.4-1.5 0-.7-.2-1.2-.5-1.6s-.9-.5-1.5-.5-1.1.2-1.5.5c-.4.4-.6.8-.6 1.5h-.9c0-.9.3-1.5.8-2s1.3-.7 2.1-.7c.9 0 1.7.3 2.2.8s.8 1.2.8 2.1c0 .7-.2 1.3-.5 1.9-.3.5-.8 1.1-1.5 1.7-.3.3-.5.5-.6.8-.1.2-.1.6-.1 1.1h-.9zm1 3.2h-1.1v-1.2h1.1v1.2z"/><path d="M117.9 114.3h-1.6v-1.7h1.6v1.7zm-1.1-.5h.6v-.8h-.6v.8zm1-2.7h-1.4v-.3c0-.7.1-1.2.2-1.5.1-.3.4-.7 1-1.2.5-.6.9-1 1.2-1.4.2-.4.3-.8.3-1.4 0-.6-.2-1.1-.5-1.4-.3-.3-.7-.5-1.3-.5-.6 0-1 .2-1.3.5-.3.3-.5.7-.5 1.3v.2h-1.3l-.1-.3c0-.9.3-1.7.9-2.2.6-.5 1.4-.8 2.3-.8 1 0 1.8.3 2.4.9.6.6.9 1.4.9 2.3 0 .8-.2 1.4-.6 2-.4.6-.9 1.2-1.5 1.8-.3.2-.5.5-.5.7-.1.2-.1.6-.1 1v.3zm-1-.5h.4c0-.4 0-.7.1-.9.1-.3.3-.6.7-.9.6-.6 1.1-1.1 1.4-1.7.3-.5.5-1.1.5-1.7 0-.8-.2-1.5-.7-2-.5-.5-1.2-.7-2-.7s-1.5.2-2 .7c-.5.4-.7 1-.7 1.7h.4c.1-.6.3-1 .6-1.4.4-.4 1-.6 1.7-.6s1.3.2 1.7.6c.4.4.6 1 .6 1.7s-.1 1.2-.4 1.6c-.3.4-.7.9-1.3 1.5-.6.5-.8.8-.8 1-.1.1-.2.4-.2 1.1z"/></symbol><symbol viewBox="0 0 52.54 52.54" id="clipboard"><path d="M17.841 8.726h16.857c.554 0 1-.447 1-1V4.565h-4.429V2a2 2 0 0 0-2-2h-6a2 2 0 0 0-2 2v2.565h-4.428v3.161a1 1 0 0 0 1 1z"/><path d="M37.698 4.565v3.161c0 1.654-1.346 3-3 3H17.842c-1.654 0-3-1.346-3-3V4.565H6.27V48.54a4 4 0 0 0 4 4h32a4 4 0 0 0 4-4V4.565h-8.572zm3.571 42.975h-30V15.199h30V47.54z"/><path d="M16.697 20.308h19.117v4H16.697zM16.791 28.402h19.117v4H16.791zM16.885 36.499h7.752v4h-7.752z"/></symbol><symbol viewBox="136 135.9 23 24.8" id="disconnect"><path d="M150.9 138.3v1.9c3.6 1.4 6.2 4.9 6.2 9 0 5.4-4.4 9.7-9.7 9.7-5.4 0-9.7-4.4-9.7-9.7 0-4.1 2.6-7.6 6.2-9v-1.9c-4.6 1.5-7.9 5.8-7.9 10.9 0 6.3 5.1 11.5 11.5 11.5 6.3 0 11.5-5.1 11.5-11.5-.2-5.1-3.5-9.4-8.1-10.9z"/><path d="M146.5 135.9h1.8v8.8h-1.8z"/></symbol><symbol viewBox="0 0 68.9 68.9" id="fail"><path d="M34.4 68.9C15.4 68.9 0 53.4 0 34.4S15.4 0 34.4 0s34.4 15.4 34.4 34.4c.1 19-15.4 34.5-34.4 34.5zm0-63.9C18.2 5 5 18.2 5 34.4s13.2 29.4 29.4 29.4 29.4-13.2 29.4-29.4C63.9 18.2 50.7 5 34.4 5z"/><path d="M24 28.5l3.9-3.9 6.9 6.9 6.9-6.9 3.9 3.9-6.9 6.9 6.9 6.9-3.9 3.9-6.9-6.9-6.8 6.8-4-3.9 6.8-6.8-6.8-6.9z"/></symbol><symbol viewBox="132.1 122.1 35.2 36.5" id="glass"><path d="M151.2 144.2c.5.5.9.9 1.3 1.4.1.2.2.4.2.6-.2 1.1 0 2 .8 2.8l8.7 8.7c1.2 1.2 3.1 1.2 4.3.1 1.2-1.2 1.1-3.1-.1-4.3l-8.6-8.6c-.8-.8-1.8-1.1-2.9-.9-.2 0-.4 0-.6-.1-.5-.4-1-.9-1.4-1.3M144.5 146.9c-6.8 0-12.4-5.5-12.4-12.4s5.5-12.4 12.4-12.4 12.4 5.5 12.4 12.4-5.6 12.4-12.4 12.4zm0-23c-5.9 0-10.6 4.8-10.6 10.6s4.8 10.6 10.6 10.6c5.9 0 10.6-4.8 10.6-10.6s-4.7-10.6-10.6-10.6z"/></symbol><symbol viewBox="0 0 68.9 68.9" id="information"><path d="M34.4 68.9C15.4 68.9 0 53.4 0 34.4S15.4 0 34.4 0s34.4 15.4 34.4 34.4-15.4 34.5-34.4 34.5zm0-63.9C18.2 5 5 18.2 5 34.4s13.2 29.4 29.4 29.4 29.4-13.2 29.4-29.4S50.7 5 34.4 5z"/><path d="M31.2 28.4h6v19h-6z"/><circle cx="34.2" cy="22.9" r="3.1"/></symbol><symbol id="lock" viewBox="-301 570.8 446.1 560"><style>.ist0{fill:#f4f4f7}</style><path d="M-145.2 791.6v-53.4C-145.2 699-115 667-78 667c37.1 0 67.2 31.9 67.2 71.2 0 9.7 7.8 17.5 17.5 17.5H68c9.7 0 17.5-7.8 17.5-17.5 0-92.3-73.4-167.4-163.5-167.4s-163.5 75.1-163.5 167.4v53.4m35 0v-53.4c0-73 57.6-132.4 128.5-132.4 65.1 0 119 50.1 127.4 114.9H22.9C14.8 670.5-27.3 632-78 632c-56.4 0-102.2 47.6-102.2 106.2v53.4M-249.3 791.6c-28.5 0-51.7 23.8-51.7 53v233.2c0 29.2 23.2 53 51.7 53H93.4c28.5 0 51.7-23.8 51.7-53V844.6c0-29.2-23.2-53-51.7-53"/><path class="ist0" d="M110 1077.8c0 10-7.5 18-16.7 18h-342.6c-9.2 0-16.7-8.1-16.7-18V844.6c0-9.9 7.5-18 16.7-18H93.4c9.2 0 16.7 8.1 16.7 18l-.1 233.2z"/><path d="M-26.4 925.2c0-28.5-23.2-51.6-51.6-51.6-28.5 0-51.6 23.2-51.6 51.6 0 14.6 6 28.1 16.4 37.7l-12.4 55.5c-.3 1.3-.4 2.5-.4 3.8 0 15.2 14.9 26.6 34.6 26.6h27.1c19.7 0 34.5-11.4 34.5-26.6 0-1.3-.1-2.6-.4-3.8l-12.4-55.5c10.2-9.6 16.2-23.2 16.2-37.7zm-62.4 88.7l10.8-48.3 10.8 48.3h-21.6zm18.4-73.9c-3.4 1.8-6 4.5-7.6 7.8-1.6-3.3-4.2-6-7.6-7.8-5.5-2.9-9-8.6-9-14.8 0-9.2 7.5-16.6 16.6-16.6 9.2 0 16.6 7.5 16.6 16.6 0 6.2-3.4 11.9-9 14.8z"/></symbol><symbol viewBox="144.5 129 22.5 21" id="settings"><path d="M148.1 139.3c-2 0-3.6-1.6-3.6-3.6s1.6-3.6 3.6-3.6 3.6 1.6 3.6 3.6-1.6 3.6-3.6 3.6zm0-6.2c-1.4 0-2.6 1.2-2.6 2.6s1.2 2.6 2.6 2.6 2.6-1.2 2.6-2.6-1.2-2.6-2.6-2.6zM148 129h1v2h-1zM148 140h1v10h-1zM155.8 146.9c-2 0-3.6-1.6-3.6-3.6s1.6-3.6 3.6-3.6 3.6 1.6 3.6 3.6-1.6 3.6-3.6 3.6zm0-6.2c-1.4 0-2.6 1.2-2.6 2.6s1.2 2.6 2.6 2.6 2.6-1.2 2.6-2.6-1.2-2.6-2.6-2.6zM155 148h1v2h-1zM163 143h1v7h-1zM163.4 141.8c-2 0-3.6-1.6-3.6-3.6s1.6-3.6 3.6-3.6 3.6 1.6 3.6 3.6-1.6 3.6-3.6 3.6zm0-6.2c-1.4 0-2.6 1.2-2.6 2.6s1.2 2.6 2.6 2.6 2.6-1.2 2.6-2.6-1.2-2.6-2.6-2.6zM163 129h1v5h-1z"/><path d="M155 129h1v11h-1z"/></symbol><symbol viewBox="0 0 507.45 507.45" id="share"><path d="M408 178.5c-20.4 0-38.25 7.65-51 20.4L175.95 94.35c2.55-5.1 2.55-12.75 2.55-17.85C178.5 33.15 145.35 0 102 0S25.5 33.15 25.5 76.5 58.65 153 102 153c20.4 0 38.25-7.65 51-20.4l181.05 104.55c-2.55 5.1-2.55 12.75-2.55 17.85 0 5.1 0 12.75 2.55 17.85L153 379.95c-12.75-12.75-30.6-20.4-51-20.4-40.8 0-73.95 33.15-73.95 73.95S61.2 507.45 102 507.45s73.95-33.15 73.95-73.95c0-5.1 0-10.2-2.55-17.85l181.05-107.1c12.75 12.75 30.6 20.4 51 20.4 43.35 0 76.5-33.15 76.5-76.5S451.35 178.5 408 178.5z"/></symbol><symbol viewBox="0 0 68.9 68.9" id="success"><path d="M34.4 68.9C15.4 68.9 0 53.4 0 34.4S15.4 0 34.4 0s34.4 15.4 34.4 34.4c.1 19-15.4 34.5-34.4 34.5zm0-63.9C18.2 5 5 18.2 5 34.4s13.2 29.4 29.4 29.4 29.4-13.2 29.4-29.4S50.7 5 34.4 5z"/><path d="M17.4 38.4l3-4.3 10.3 8.4 15.5-22.2 4.9 3.5-18.4 26.5-15.3-11.9z"/></symbol><symbol viewBox="0 0 34.1 46.5" id="trash"><path d="M4.7 43.3s.7 3.2 4.3 3.2h16.1c3.6 0 4.3-3.2 4.3-3.2l3.2-30.9h-31l3.1 30.9zM23.2 17c0-.9.7-1.5 1.5-1.5.9 0 1.5.7 1.5 1.5l-1.5 23.2c0 .9-.7 1.5-1.5 1.5s-1.5-.7-1.5-1.5L23.2 17zm-7.7 0c0-.9.7-1.5 1.5-1.5.9 0 1.5.7 1.5 1.5v23.2c0 .9-.7 1.5-1.5 1.5-.9 0-1.5-.7-1.5-1.5V17zm-6.2-1.5c.9 0 1.5.7 1.5 1.5l1.5 23.2c0 .9-.7 1.5-1.5 1.5-.9 0-1.5-.7-1.5-1.5L7.7 17c0-.8.7-1.5 1.6-1.5zm22.3-9.3h-6.8V3.1C24.8.7 24 0 21.7 0h-9.3c-2.1 0-3.1 1-3.1 3.1v3.1H2.5C1.1 6.2 0 7.2 0 8.5c0 1.3 1.1 2.3 2.5 2.3h29.1c1.4 0 2.5-1 2.5-2.3 0-1.3-1.1-2.3-2.5-2.3zm-9.9 0h-9.3V3.1h9.3v3.1zm0 0"/></symbol><symbol viewBox="0 0 65.4 58.2" id="warn"><path d="M59.2 58.2h-53c-3.5 0-5-1.7-5.6-2.7-.6-1-1.3-3.1.4-6l10.3-17.8c.8-1.4 1.9-3.3 3-5.2 1.1-1.9 2.1-3.7 3-5.1l10.2-18C28.8 1.2 30.7 0 32.7 0s3.9 1.2 5.2 3.4l16.2 28.4 10.3 17.7c1.7 2.9 1 5 .4 6-.7 1-2.2 2.7-5.6 2.7zM5 53.2h54.2c.8 0 1.2-.2 1.3-.3 0 0-.1-.4-.4-1L43.8 23.8 33.5 5.9c-.4-.7-.7-.9-.8-.9-.1 0-.4.2-.8.9L21.6 23.8c-.8 1.4-1.9 3.3-3 5.2-1.1 1.9-2.2 3.8-3 5.2L5.4 52.1c-.4.6-.4 1.1-.4 1.1z"/><path d="M29.7 45.1c0-.9.2-1.6.7-2.1.5-.5 1.2-.7 2.1-.7.9 0 1.6.2 2.1.7.5.5.7 1.2.7 2.1 0 .9-.2 1.6-.7 2.1-.5.5-1.2.7-2.1.7-.9 0-1.6-.2-2.1-.7-.4-.6-.7-1.3-.7-2.1zm4.8-5.8h-3.8l-.8-17h5.5l-.9 17z"/></symbol></svg>