<?xml version="1.0" standalone="no"?>
<!DOCTYPE svg PUBLIC "-//W3C//DTD SVG 20010904//EN"
 "http://www.w3.org/TR/2001/REC-SVG-20010904/DTD/svg10.dtd">
<svg version="1.0" xmlns="http://www.w3.org/2000/svg"
 width="789.000000pt" height="789.000000pt" viewBox="0 0 789.000000 789.000000"
 preserveAspectRatio="xMidYMid meet">
<metadata>
Created by potrace 1.11, written by Peter Selinger 2001-2013
</metadata>
<g transform="translate(0.000000,789.000000) scale(0.100000,-0.100000)"
fill="#000000" stroke="none">
<path d="M6747 7497 c-20 -12 -144 -134 -149 -146 -2 -3 -16 -16 -32 -29 -16
-12 -26 -22 -23 -22 3 0 -9 -15 -26 -33 -18 -19 -35 -32 -39 -30 -5 2 -8 -1
-8 -7 0 -6 -21 -33 -47 -59 -27 -26 -97 -99 -158 -162 -60 -63 -114 -113 -118
-111 -5 1 -6 -2 -3 -6 6 -10 -23 -40 -39 -41 -5 -1 -10 -5 -10 -10 0 -5 -24
-33 -52 -61 -29 -29 -53 -56 -53 -61 0 -5 -7 -9 -15 -9 -8 0 -15 -3 -15 -8 0
-12 -118 -131 -124 -124 -3 3 -6 0 -6 -7 0 -15 -69 -87 -81 -84 -5 2 -8 -1 -6
-6 1 -5 -15 -27 -36 -48 -105 -107 -357 -368 -357 -370 0 -12 -256 -261 -263
-256 -6 3 -7 2 -4 -4 7 -11 -68 -93 -85 -93 -6 0 -8 -3 -5 -6 10 -10 -80 -97
-92 -89 -6 3 -9 0 -6 -8 6 -15 -69 -90 -80 -79 -4 4 -5 2 -3 -4 1 -6 -14 -30
-35 -53 -27 -30 -43 -41 -55 -36 -13 5 -14 3 -6 -5 9 -9 -11 -36 -84 -111 -52
-54 -100 -95 -105 -92 -6 3 -7 2 -4 -3 9 -15 -229 -258 -244 -249 -8 6 -10 4
-4 -4 4 -8 -5 -26 -26 -47 -31 -32 -64 -49 -40 -21 8 10 7 14 -4 14 -7 0 -14
-3 -13 -6 3 -32 -3 -42 -23 -36 -12 4 -19 3 -16 -2 3 -5 -10 -9 -29 -10 -19 0
-34 4 -34 9 0 5 -4 6 -10 3 -20 -12 -139 74 -132 97 1 5 -2 7 -7 4 -11 -7 -76
49 -76 66 -1 7 -6 12 -13 10 -17 -3 -56 34 -48 47 4 5 1 13 -5 17 -8 5 -9 3
-4 -6 21 -35 -69 39 -181 147 -35 34 -64 59 -64 55 0 -3 -20 15 -45 40 -25 26
-45 44 -45 40 0 -4 -11 5 -25 20 -13 15 -40 39 -60 53 -19 15 -32 31 -29 36 3
5 1 8 -4 7 -5 -2 -35 20 -68 49 -32 29 -69 61 -81 71 -13 10 -19 22 -15 26 4
4 2 6 -4 4 -6 -2 -27 11 -46 28 -19 18 -43 36 -54 41 -31 16 -81 14 -98 -3 -9
-8 -16 -12 -16 -7 -1 4 -10 -11 -20 -34 -25 -53 -42 -98 -38 -99 2 0 -3 -8
-10 -16 -7 -9 -14 -25 -17 -36 -2 -11 -17 -53 -33 -93 -17 -41 -41 -102 -54
-136 -14 -35 -28 -60 -33 -55 -5 4 -5 2 -2 -4 6 -11 -15 -76 -54 -169 -7 -16
-13 -33 -13 -37 -1 -3 -4 -10 -9 -14 -4 -4 -7 -16 -7 -26 0 -11 -3 -17 -7 -15
-5 3 -9 -6 -10 -20 0 -14 -7 -29 -15 -34 -7 -5 -10 -9 -6 -9 9 0 -30 -110 -43
-124 -5 -6 -9 -18 -9 -28 0 -10 -7 -18 -17 -18 -15 0 -15 -2 -4 -9 12 -8 10
-15 -7 -46 -12 -20 -17 -33 -11 -30 6 4 5 -2 -2 -13 -7 -12 -17 -18 -23 -15
-5 3 -6 1 -2 -6 9 -14 -22 -111 -35 -111 -5 0 -8 -3 -7 -7 3 -12 -25 -103 -32
-103 -3 0 -7 -8 -7 -17 -3 -28 -49 -133 -56 -127 -3 3 -3 -3 0 -15 3 -12 1
-21 -6 -21 -6 0 -10 -3 -9 -7 3 -11 -35 -113 -42 -113 -3 0 -6 -8 -7 -17 -1
-19 -24 -84 -33 -93 -3 -3 -6 -12 -8 -20 -2 -14 -20 -61 -53 -145 -7 -16 -13
-32 -14 -35 -4 -10 -17 -46 -25 -65 -4 -11 -18 -47 -30 -80 -26 -67 -41 -106
-60 -150 -7 -16 -15 -34 -16 -40 -1 -5 -15 -41 -29 -80 -15 -38 -29 -78 -32
-87 -3 -10 -9 -18 -14 -18 -5 0 -8 -3 -7 -7 6 -16 -47 -151 -56 -146 -5 3 -6
2 -3 -4 8 -13 -14 -74 -33 -91 -13 -12 -13 -13 0 -6 13 7 13 5 1 -9 -7 -9 -11
-17 -7 -17 4 0 -1 -11 -10 -25 -8 -13 -13 -29 -9 -35 3 -5 1 -10 -4 -10 -6 0
-11 -9 -11 -20 0 -11 -5 -20 -11 -20 -5 0 -8 -4 -5 -8 3 -5 -1 -21 -9 -35 -15
-29 -15 -30 -15 -48 0 -6 -7 -8 -17 -4 -15 5 -16 4 -5 -6 15 -16 16 -33 0 -23
-6 4 -8 3 -5 -3 9 -14 -12 -73 -25 -73 -5 0 -7 -4 -4 -8 8 -13 -33 -114 -52
-130 -9 -7 -11 -11 -4 -7 18 9 15 -5 -12 -61 -12 -27 -26 -61 -30 -77 -3 -15
-11 -27 -16 -27 -5 0 -6 -7 -3 -17 5 -12 3 -14 -7 -8 -9 5 -11 4 -6 -3 11 -18
-31 -105 -46 -96 -10 6 -11 5 -1 -7 10 -13 6 -31 -20 -100 -42 -107 -44 -113
-44 -119 0 -3 -10 -24 -22 -48 -12 -23 -19 -42 -15 -42 4 0 2 -6 -3 -12 -6 -7
-16 -31 -23 -53 -7 -22 -16 -44 -20 -50 -4 -5 -20 -47 -36 -92 -15 -45 -31
-80 -35 -77 -4 2 -6 -2 -5 -9 2 -25 -36 -117 -46 -111 -7 4 -8 2 -4 -5 9 -14
-14 -82 -26 -75 -4 3 -6 -1 -3 -8 7 -18 -40 -130 -50 -120 -5 4 -5 2 -2 -5 4
-6 2 -24 -5 -40 -6 -15 -12 -31 -13 -35 -2 -5 -4 -10 -5 -13 -3 -7 -7 -22 -9
-36 0 -5 -6 -7 -13 -3 -7 4 -8 3 -4 -4 3 -6 -10 -51 -29 -99 -20 -48 -37 -92
-39 -98 -2 -5 -6 -22 -11 -37 -4 -16 -12 -25 -18 -21 -5 3 -7 2 -4 -4 6 -9
-20 -84 -96 -278 -60 -153 -62 -162 -48 -179 11 -13 16 -12 38 7 14 12 31 27
37 34 117 122 220 222 227 217 5 -3 6 3 2 12 -5 14 -3 16 11 11 9 -4 15 -3 11
2 -3 5 7 20 23 33 26 22 32 30 32 44 0 4 7 1 15 -6 13 -11 14 -10 10 2 -7 18
30 62 45 53 6 -3 9 -1 8 7 -2 7 3 12 10 10 8 -1 10 2 7 8 -9 15 44 59 64 53
13 -4 13 -3 2 5 -11 8 -8 16 18 41 18 17 37 28 43 25 6 -4 8 -3 5 3 -9 14 89
114 106 107 8 -3 18 -1 22 5 3 7 0 8 -9 5 -9 -3 -16 -3 -16 0 0 12 78 86 91
86 7 0 10 3 6 6 -9 9 21 36 33 29 6 -4 7 1 3 11 -4 12 -3 15 5 10 7 -4 12 -3
12 3 0 15 57 71 64 64 3 -4 6 0 6 9 0 19 68 81 80 73 6 -4 8 -10 6 -14 -3 -4
1 -8 9 -8 13 0 12 4 -2 19 -15 17 -12 22 71 103 48 47 92 83 97 80 5 -4 6 2 2
11 -5 13 -3 16 10 11 10 -4 14 -2 11 6 -6 16 41 61 54 53 5 -3 9 2 8 12 0 9 5
16 12 14 6 -1 11 1 10 5 -5 14 46 64 59 59 6 -3 10 0 7 7 -5 14 177 197 195
197 7 0 10 4 7 9 -7 11 29 43 38 34 4 -5 6 -1 4 7 -2 9 3 14 12 12 8 -2 12 0
7 4 -9 10 43 65 55 58 5 -3 8 -2 7 3 -4 15 13 43 25 43 6 0 17 9 24 20 7 12
17 18 23 15 5 -4 8 -1 7 7 -2 7 3 12 10 10 8 -1 11 1 8 6 -7 12 38 54 49 45 4
-5 5 -3 2 3 -10 17 29 58 48 50 9 -3 14 -10 11 -14 -3 -5 2 -9 10 -9 11 0 9 6
-8 24 -20 22 -16 29 14 24 5 0 7 2 6 7 -4 13 27 52 41 52 8 0 12 2 9 5 -3 3
21 32 54 65 56 57 78 74 62 48 -4 -7 -3 -8 5 -4 6 4 9 11 7 15 -3 4 17 31 44
60 28 30 50 50 50 46 0 -4 13 9 29 29 16 20 33 37 38 37 4 -1 8 3 8 7 0 11 93
92 105 92 5 0 7 -8 4 -17 -2 -10 1 -8 7 4 11 21 13 21 36 6 22 -15 61 -73 48
-73 -3 0 2 -16 10 -36 18 -43 18 -47 4 -38 -6 3 -3 -5 6 -20 10 -14 13 -26 9
-26 -5 0 -2 -5 6 -10 12 -8 13 -12 2 -19 -11 -7 -11 -9 2 -14 9 -4 13 -14 11
-27 -2 -11 1 -20 6 -20 6 0 9 -6 7 -12 -3 -7 -10 -13 -15 -13 -6 0 -15 -3 -19
-7 -3 -4 3 -5 15 -3 28 5 54 -41 30 -56 -11 -7 -10 -9 5 -9 11 0 17 -3 14 -6
-3 -3 3 -33 14 -67 10 -34 21 -79 22 -99 2 -21 8 -43 13 -50 6 -7 14 -29 19
-48 4 -19 8 -37 9 -40 1 -3 7 -23 13 -44 6 -22 9 -42 7 -45 -3 -2 0 -10 5 -16
6 -7 12 -26 13 -43 1 -16 5 -28 10 -25 4 2 7 -3 7 -13 0 -9 9 -48 21 -87 17
-57 18 -71 7 -79 -9 -7 -8 -8 6 -4 12 4 24 0 33 -14 28 -40 74 -14 150 86 13
16 32 41 44 57 11 15 25 24 31 21 7 -5 8 -2 3 6 -5 8 -1 18 10 27 11 7 15 13
9 13 -5 0 -4 4 2 8 5 4 23 24 39 45 21 29 30 35 37 25 6 -9 7 -5 3 10 -4 13
-2 22 4 22 6 0 11 5 11 11 0 6 15 29 33 50 17 21 41 49 52 63 10 13 24 22 29
19 5 -3 6 -1 2 6 -10 15 13 43 27 34 5 -3 7 -2 4 4 -7 11 49 93 64 93 5 0 8 6
6 13 -1 6 4 11 11 10 6 -2 12 4 12 12 0 8 5 15 12 15 6 0 9 3 5 6 -9 9 42 73
56 70 7 -1 9 -1 5 1 -5 3 -8 9 -8 14 0 6 5 7 10 4 6 -3 10 -1 10 5 0 7 9 25
21 42 21 28 22 29 43 11 21 -18 21 -18 3 3 -21 25 -22 34 -1 34 8 0 13 4 10 8
-7 11 23 54 33 48 4 -3 8 0 8 7 0 16 33 67 43 67 4 0 12 12 19 26 7 16 17 24
26 20 10 -3 12 0 8 11 -5 12 -3 14 7 8 9 -5 11 -4 6 3 -8 13 52 94 64 87 4 -3
13 2 20 10 7 8 15 13 19 11 4 -3 13 0 21 5 12 7 10 8 -7 6 -11 -2 -28 -9 -37
-16 -9 -7 -16 -10 -16 -6 0 9 71 98 82 103 5 2 8 10 8 18 0 16 11 18 28 4 9
-7 9 -7 2 2 -15 18 -13 22 23 66 17 22 43 54 56 71 13 17 27 29 31 26 4 -3 11
2 14 11 4 10 2 13 -7 8 -8 -5 -8 -2 2 9 7 9 18 14 24 10 6 -4 7 -1 2 7 -5 8
-2 17 7 24 8 6 20 21 27 34 7 12 16 20 21 17 5 -3 10 5 12 17 2 13 9 22 16 21
6 -2 11 0 11 5 -1 4 -1 12 0 17 2 15 63 80 72 78 5 -2 6 3 3 10 -2 7 7 24 21
37 14 13 25 29 25 36 0 7 4 14 8 16 4 1 21 20 36 40 16 21 33 35 39 31 6 -4 7
-1 3 6 -9 14 22 53 35 45 5 -3 6 3 2 12 -5 13 -3 16 10 11 9 -3 19 -1 23 5 4
7 3 8 -4 4 -22 -13 -12 15 14 42 15 15 23 20 18 12 -7 -13 -5 -13 9 -1 18 15
23 26 7 16 -15 -9 -12 11 3 24 8 6 18 7 22 3 5 -4 5 -2 2 4 -4 6 7 30 23 52
21 30 35 40 50 37 11 -2 18 0 15 6 -4 5 -11 7 -16 4 -5 -4 -9 -2 -9 4 0 5 8
15 18 20 9 6 13 11 9 11 -5 0 9 21 30 48 22 26 58 72 80 102 55 74 78 100 91
100 6 0 9 6 6 14 -3 8 5 21 18 30 12 9 18 16 13 16 -6 0 -2 5 7 11 10 5 19 9
20 8 2 -1 13 3 25 9 17 9 22 9 27 -4 4 -12 1 -14 -14 -9 -11 4 -20 2 -20 -3 0
-5 10 -9 23 -8 12 1 21 7 19 15 -4 21 40 2 68 -29 46 -52 60 -70 60 -79 0 -5
7 -12 16 -15 9 -4 14 -9 10 -13 -3 -3 3 -13 15 -21 11 -8 18 -20 15 -29 -3 -8
-2 -11 4 -8 11 7 32 -29 22 -40 -4 -5 -2 -5 4 -2 15 9 38 -19 28 -34 -4 -7 -3
-9 4 -5 13 8 35 -28 24 -39 -4 -5 -1 -5 6 -1 8 5 17 -3 25 -23 7 -17 17 -28
22 -24 4 5 6 -2 3 -14 -4 -15 -2 -20 7 -16 8 2 19 -6 26 -19 7 -12 17 -28 23
-35 29 -32 36 -43 31 -43 -3 0 5 -12 19 -27 14 -15 23 -30 20 -35 -3 -4 3 -8
12 -8 10 0 15 -3 11 -6 -3 -3 7 -20 23 -38 17 -17 30 -36 30 -43 0 -6 6 -14
13 -16 9 -4 8 -8 -3 -17 -12 -9 -10 -10 9 -5 21 6 23 4 19 -13 -4 -13 -1 -19
6 -17 11 4 76 -77 76 -95 0 -6 4 -10 8 -10 12 0 42 -56 34 -64 -4 -4 -2 -6 3
-4 12 3 95 -79 87 -86 -2 -3 6 -2 17 1 39 10 45 33 51 193 2 36 7 70 12 77 5
7 5 14 -2 18 -7 4 -7 12 0 25 7 13 7 21 0 25 -6 4 -7 12 -3 18 4 7 6 25 4 41
-2 20 1 26 10 21 9 -6 10 -4 3 6 -9 15 -13 109 -4 109 3 0 4 32 3 70 -1 52 1
69 10 64 9 -5 9 -4 0 6 -8 9 -9 19 -2 32 7 12 6 18 -1 18 -6 0 -8 5 -4 12 4 6
7 49 7 95 0 69 3 83 16 84 12 0 11 3 -4 9 -11 5 -15 9 -10 9 6 1 10 20 10 43
0 30 4 42 13 40 8 -1 11 2 7 8 -3 6 -10 8 -15 5 -5 -3 -8 15 -7 39 1 28 5 42
12 38 7 -4 7 -1 -1 9 -5 8 -9 25 -8 39 2 14 4 43 5 65 1 22 7 43 13 47 8 5 7
8 -1 8 -7 0 -13 5 -13 11 0 6 8 8 18 5 15 -5 15 -4 2 6 -15 13 -23 48 -11 48
3 0 4 32 3 71 -3 52 0 74 10 80 7 5 8 9 3 9 -6 0 -10 21 -9 48 0 35 4 46 15
44 11 -3 12 -1 2 9 -7 7 -13 23 -13 36 0 13 6 23 13 23 9 0 9 2 -1 8 -13 9
-12 38 2 61 6 10 5 12 -2 7 -16 -9 -15 7 0 22 9 9 9 12 -1 12 -11 0 -11 3 -1
15 10 12 10 15 0 15 -9 0 -7 7 6 22 10 12 13 18 7 14 -9 -5 -13 1 -13 19 0 14
4 24 9 20 5 -3 13 0 17 6 4 7 3 9 -4 5 -6 -3 -14 -1 -18 5 -3 6 0 15 7 20 12
7 11 9 -1 9 -13 0 -13 2 0 9 8 6 19 7 25 4 5 -4 6 -2 2 3 -5 5 -13 9 -19 9 -6
0 -12 15 -12 33 -1 17 2 32 5 32 4 0 5 25 3 55 -2 39 0 54 8 49 7 -4 8 -3 4 4
-4 7 -9 21 -11 33 -3 16 0 19 12 14 15 -5 15 -4 0 13 -15 16 -15 21 -4 30 10
9 17 8 27 -1 12 -10 12 -9 1 5 -7 10 -17 15 -22 12 -5 -3 -9 14 -9 36 0 36 3
41 18 36 15 -5 15 -5 1 6 -9 8 -15 28 -14 53 0 34 4 40 20 37 18 -2 18 -1 -2
10 -13 8 -19 18 -15 25 4 6 7 28 6 50 0 21 5 41 10 45 7 5 8 8 1 8 -6 0 -10
21 -9 51 3 61 10 83 25 73 8 -4 9 -3 5 5 -4 6 -12 9 -17 6 -5 -4 -9 10 -9 30
0 26 3 34 13 29 9 -6 9 -4 -1 8 -10 13 -10 17 0 21 10 4 10 6 -1 6 -11 1 -11
4 0 18 12 15 12 16 -1 8 -13 -7 -13 -6 -2 7 10 13 10 17 0 21 -7 3 -8 6 -3 6
6 1 9 29 8 68 -1 43 3 70 10 75 9 6 9 8 0 8 -7 0 -10 10 -8 23 6 31 22 371 24
490 1 33 5 56 10 52 5 -3 13 -1 16 5 4 6 1 9 -7 8 -15 -4 -18 34 -3 44 7 5 7
8 -1 8 -6 0 -9 15 -8 33 1 17 3 32 3 32 1 0 3 68 6 150 3 83 8 182 11 220 13
182 -5 233 -69 192z"/>
<path d="M6855 7041 c-3 -5 -2 -12 3 -15 5 -3 9 1 9 9 0 17 -3 19 -12 6z"/>
<path d="M6855 6949 c-3 -4 2 -6 10 -5 21 3 28 13 10 13 -9 0 -18 -4 -20 -8z"/>
<path d="M6830 6915 c0 -7 30 -13 34 -7 3 4 -4 9 -15 9 -10 1 -19 0 -19 -2z"/>
<path d="M6915 6879 c-4 -6 -5 -12 -2 -15 2 -3 7 2 10 11 7 17 1 20 -8 4z"/>
<path d="M6850 6870 c0 -5 5 -10 11 -10 5 0 7 5 4 10 -3 6 -8 10 -11 10 -2 0
-4 -4 -4 -10z"/>
<path d="M6830 6810 c0 -5 5 -10 11 -10 5 0 7 5 4 10 -3 6 -8 10 -11 10 -2 0
-4 -4 -4 -10z"/>
<path d="M6860 6816 c0 -2 8 -10 18 -17 15 -13 16 -12 3 4 -13 16 -21 21 -21
13z"/>
<path d="M6855 6550 c-3 -5 -1 -10 4 -10 6 0 11 5 11 10 0 6 -2 10 -4 10 -3 0
-8 -4 -11 -10z"/>
<path d="M6819 6523 c-13 -16 -12 -17 4 -4 9 7 17 15 17 17 0 8 -8 3 -21 -13z"/>
<path d="M6850 6509 c0 -5 5 -7 10 -4 6 3 10 8 10 11 0 2 -4 4 -10 4 -5 0 -10
-5 -10 -11z"/>
<path d="M6876 6492 c-3 -5 1 -9 9 -9 8 0 12 4 9 9 -3 4 -7 8 -9 8 -2 0 -6 -4
-9 -8z"/>
<path d="M6796 6417 c3 -10 9 -15 12 -12 3 3 0 11 -7 18 -10 9 -11 8 -5 -6z"/>
<path d="M6826 6412 c-3 -5 1 -9 9 -9 8 0 12 4 9 9 -3 4 -7 8 -9 8 -2 0 -6 -4
-9 -8z"/>
<path d="M6793 6345 c0 -8 4 -12 9 -9 5 3 6 10 3 15 -9 13 -12 11 -12 -6z"/>
<path d="M6859 6258 c-5 -18 -6 -38 -1 -34 7 8 12 36 6 36 -2 0 -4 -1 -5 -2z"/>
<path d="M6854 6186 c1 -8 5 -18 8 -22 4 -3 5 1 4 10 -1 8 -5 18 -8 22 -4 3
-5 -1 -4 -10z"/>
<path d="M6775 6130 c3 -5 8 -10 11 -10 2 0 4 5 4 10 0 6 -5 10 -11 10 -5 0
-7 -4 -4 -10z"/>
<path d="M6854 6086 c1 -8 5 -18 8 -22 4 -3 5 1 4 10 -1 8 -5 18 -8 22 -4 3
-5 -1 -4 -10z"/>
<path d="M6790 5936 c0 -2 7 -7 16 -10 8 -3 12 -2 9 4 -6 10 -25 14 -25 6z"/>
<path d="M6856 5868 c3 -5 10 -6 15 -3 13 9 11 12 -6 12 -8 0 -12 -4 -9 -9z"/>
<path d="M6793 5755 c0 -8 4 -12 9 -9 5 3 6 10 3 15 -9 13 -12 11 -12 -6z"/>
<path d="M6870 5750 c0 -5 5 -10 11 -10 5 0 7 5 4 10 -3 6 -8 10 -11 10 -2 0
-4 -4 -4 -10z"/>
<path d="M6749 5533 c-13 -16 -12 -17 4 -4 9 7 17 15 17 17 0 8 -8 3 -21 -13z"/>
<path d="M3326 5528 c3 -5 10 -6 15 -3 13 9 11 12 -6 12 -8 0 -12 -4 -9 -9z"/>
<path d="M4650 5506 c0 -2 8 -10 18 -17 15 -13 16 -12 3 4 -13 16 -21 21 -21
13z"/>
<path d="M6806 5432 c-3 -5 1 -9 9 -9 8 0 12 4 9 9 -3 4 -7 8 -9 8 -2 0 -6 -4
-9 -8z"/>
<path d="M6770 5426 c0 -2 8 -10 18 -17 15 -13 16 -12 3 4 -13 16 -21 21 -21
13z"/>
<path d="M2713 5375 c0 -8 4 -12 9 -9 5 3 6 10 3 15 -9 13 -12 11 -12 -6z"/>
<path d="M6785 5370 c-3 -6 1 -7 9 -4 18 7 21 14 7 14 -6 0 -13 -4 -16 -10z"/>
<path d="M6747 5349 c7 -7 15 -10 18 -7 3 3 -2 9 -12 12 -14 6 -15 5 -6 -5z"/>
<path d="M6845 5329 c-3 -4 2 -6 10 -5 21 3 28 13 10 13 -9 0 -18 -4 -20 -8z"/>
<path d="M3615 5321 c-3 -5 -2 -12 3 -15 5 -3 9 1 9 9 0 17 -3 19 -12 6z"/>
<path d="M3640 5270 c-12 -7 -10 -9 7 -7 12 0 19 5 17 9 -6 10 -6 10 -24 -2z"/>
<path d="M6814 5272 c4 -3 14 -7 22 -8 9 -1 13 0 10 4 -4 3 -14 7 -22 8 -9 1
-13 0 -10 -4z"/>
<path d="M6730 5251 c0 -6 4 -12 8 -15 5 -3 9 1 9 9 0 8 -4 15 -9 15 -4 0 -8
-4 -8 -9z"/>
<path d="M3695 5229 c-3 -4 2 -6 10 -5 21 3 28 13 10 13 -9 0 -18 -4 -20 -8z"/>
<path d="M6806 5232 c-3 -5 1 -9 9 -9 8 0 12 4 9 9 -3 4 -7 8 -9 8 -2 0 -6 -4
-9 -8z"/>
<path d="M3945 5170 c-3 -6 1 -7 9 -4 18 7 21 14 7 14 -6 0 -13 -4 -16 -10z"/>
<path d="M6819 5158 c-5 -18 -6 -38 -1 -34 7 8 12 36 6 36 -2 0 -4 -1 -5 -2z"/>
<path d="M6753 5115 c0 -8 4 -12 9 -9 5 3 6 10 3 15 -9 13 -12 11 -12 -6z"/>
<path d="M6759 5083 c-13 -16 -12 -17 4 -4 9 7 17 15 17 17 0 8 -8 3 -21 -13z"/>
<path d="M3875 5069 c-3 -4 2 -6 10 -5 21 3 28 13 10 13 -9 0 -18 -4 -20 -8z"/>
<path d="M3936 5072 c-3 -4 4 -9 15 -9 23 -2 25 3 4 10 -8 4 -16 3 -19 -1z"/>
<path d="M6816 5072 c-3 -4 4 -9 15 -9 23 -2 25 3 4 10 -8 4 -16 3 -19 -1z"/>
<path d="M3995 5059 c-4 -6 -5 -12 -2 -15 2 -3 7 2 10 11 7 17 1 20 -8 4z"/>
<path d="M4070 5029 c0 -5 5 -7 10 -4 6 3 10 8 10 11 0 2 -4 4 -10 4 -5 0 -10
-5 -10 -11z"/>
<path d="M4315 5019 c-4 -6 -5 -12 -2 -15 2 -3 7 2 10 11 7 17 1 20 -8 4z"/>
<path d="M3939 5003 c-13 -16 -12 -17 4 -4 16 13 21 21 13 21 -2 0 -10 -8 -17
-17z"/>
<path d="M4199 5003 c-13 -16 -12 -17 3 -5 9 8 23 10 29 6 8 -4 9 -3 5 4 -10
17 -21 15 -37 -5z"/>
<path d="M3990 4986 c0 -2 8 -10 18 -17 15 -13 16 -12 3 4 -13 16 -21 21 -21
13z"/>
<path d="M6730 4929 c0 -5 5 -7 10 -4 6 3 10 8 10 11 0 2 -4 4 -10 4 -5 0 -10
-5 -10 -11z"/>
<path d="M6735 4899 c-4 -6 -5 -12 -2 -15 2 -3 7 2 10 11 7 17 1 20 -8 4z"/>
<path d="M4110 4890 c0 -5 5 -10 11 -10 5 0 7 5 4 10 -3 6 -8 10 -11 10 -2 0
-4 -4 -4 -10z"/>
<path d="M6990 4889 c0 -5 5 -7 10 -4 6 3 10 8 10 11 0 2 -4 4 -10 4 -5 0 -10
-5 -10 -11z"/>
<path d="M6770 4830 c0 -5 5 -10 11 -10 5 0 7 5 4 10 -3 6 -8 10 -11 10 -2 0
-4 -4 -4 -10z"/>
<path d="M6820 4810 c8 -5 20 -10 25 -10 6 0 3 5 -5 10 -8 5 -19 10 -25 10 -5
0 -3 -5 5 -10z"/>
<path d="M6766 4752 c-3 -5 1 -9 9 -9 8 0 12 4 9 9 -3 4 -7 8 -9 8 -2 0 -6 -4
-9 -8z"/>
<path d="M6770 4669 c0 -5 5 -7 10 -4 6 3 10 8 10 11 0 2 -4 4 -10 4 -5 0 -10
-5 -10 -11z"/>
<path d="M6816 4652 c-3 -5 1 -9 9 -9 8 0 12 4 9 9 -3 4 -7 8 -9 8 -2 0 -6 -4
-9 -8z"/>
<path d="M6716 4568 c3 -5 10 -6 15 -3 13 9 11 12 -6 12 -8 0 -12 -4 -9 -9z"/>
<path d="M6775 4471 c-3 -5 -2 -12 3 -15 5 -3 9 1 9 9 0 17 -3 19 -12 6z"/>
<path d="M6710 4426 c0 -2 8 -10 18 -17 15 -13 16 -12 3 4 -13 16 -21 21 -21
13z"/>
<path d="M6776 4348 c3 -5 10 -6 15 -3 13 9 11 12 -6 12 -8 0 -12 -4 -9 -9z"/>
<path d="M6693 4335 c0 -8 4 -15 9 -15 4 0 8 4 8 9 0 6 -4 12 -8 15 -5 3 -9
-1 -9 -9z"/>
<path d="M6710 4290 c0 -5 5 -10 10 -10 6 0 10 5 10 10 0 6 -4 10 -10 10 -5 0
-10 -4 -10 -10z"/>
<path d="M6750 4292 c0 -5 7 -9 15 -9 8 0 12 4 9 9 -3 4 -9 8 -15 8 -5 0 -9
-4 -9 -8z"/>
<path d="M6776 4232 c-3 -5 1 -9 9 -9 8 0 12 4 9 9 -3 4 -7 8 -9 8 -2 0 -6 -4
-9 -8z"/>
<path d="M5714 4215 c3 -23 12 -26 13 -5 1 11 -2 20 -7 20 -4 0 -7 -7 -6 -15z"/>
<path d="M5795 4220 c-3 -5 -3 -10 1 -10 4 0 1 -6 -8 -12 -12 -10 -13 -18 -7
-33 9 -19 9 -19 5 2 -2 13 2 24 11 27 8 3 12 10 9 15 -4 5 0 12 6 14 9 4 10 6
1 6 -6 1 -15 -3 -18 -9z"/>
<path d="M2233 4205 c0 -8 4 -12 9 -9 5 3 6 10 3 15 -9 13 -12 11 -12 -6z"/>
<path d="M5748 4203 c7 -3 16 -2 19 1 4 3 -2 6 -13 5 -11 0 -14 -3 -6 -6z"/>
<path d="M5680 4189 c-12 -9 -12 -10 4 -5 13 5 17 2 13 -8 -6 -14 17 -17 28
-3 3 4 2 5 -2 2 -3 -3 -11 2 -17 10 -8 11 -15 12 -26 4z"/>
<path d="M5815 4191 c-3 -5 0 -13 6 -17 8 -5 9 -3 4 6 -6 10 -4 12 9 7 10 -4
15 -3 11 3 -8 13 -22 13 -30 1z"/>
<path d="M5750 4159 c0 -5 -6 -7 -12 -3 -7 4 -9 3 -5 -1 13 -15 34 -14 34 1 0
8 -4 14 -9 14 -4 0 -8 -5 -8 -11z"/>
<path d="M5835 4160 c-3 -6 1 -7 9 -4 18 7 21 14 7 14 -6 0 -13 -4 -16 -10z"/>
<path d="M5870 4155 c0 -5 5 -17 10 -25 5 -8 10 -10 10 -5 0 6 -5 17 -10 25
-5 8 -10 11 -10 5z"/>
<path d="M6755 4150 c-3 -5 -1 -10 4 -10 6 0 11 5 11 10 0 6 -2 10 -4 10 -3 0
-8 -4 -11 -10z"/>
<path d="M5673 4130 c-1 -11 2 -20 7 -20 4 0 7 7 6 15 -3 23 -12 26 -13 5z"/>
<path d="M5716 4135 c10 -8 23 -15 28 -15 6 0 1 7 -10 15 -10 8 -23 15 -28 15
-6 0 -1 -7 10 -15z"/>
<path d="M5810 4139 c0 -5 -4 -8 -8 -5 -5 3 -9 0 -9 -7 0 -7 8 -13 17 -13 11
0 15 6 12 18 -5 20 -12 24 -12 7z"/>
<path d="M6839 4123 c-13 -16 -12 -17 4 -4 9 7 17 15 17 17 0 8 -8 3 -21 -13z"/>
<path d="M6774 4112 c4 -3 14 -7 22 -8 9 -1 13 0 10 4 -4 3 -14 7 -22 8 -9 1
-13 0 -10 -4z"/>
<path d="M5606 4087 c3 -10 9 -15 12 -12 3 3 0 11 -7 18 -10 9 -11 8 -5 -6z"/>
<path d="M5636 4091 c-3 -4 6 -7 19 -7 14 0 22 2 19 5 -8 8 -34 10 -38 2z"/>
<path d="M5755 4091 c-3 -5 -2 -12 3 -15 5 -3 9 1 9 9 0 17 -3 19 -12 6z"/>
<path d="M5806 4088 c3 -5 10 -6 15 -3 13 9 11 12 -6 12 -8 0 -12 -4 -9 -9z"/>
<path d="M6673 4083 c0 -9 4 -10 14 -2 7 6 13 12 13 14 0 1 -6 2 -13 2 -8 0
-14 -6 -14 -14z"/>
<path d="M5789 4067 c6 -8 7 -18 3 -22 -4 -5 -1 -5 6 -1 10 6 10 11 1 22 -6 8
-14 14 -16 14 -3 0 0 -6 6 -13z"/>
<path d="M5908 4069 c6 -9 8 -20 4 -25 -4 -5 -3 -6 2 -2 5 4 14 3 21 -2 8 -7
12 -5 12 5 0 8 -3 13 -5 10 -3 -3 -15 3 -26 12 -15 14 -18 14 -8 2z"/>
<path d="M5570 4051 c0 -6 4 -13 10 -16 6 -3 7 1 4 9 -7 18 -14 21 -14 7z"/>
<path d="M5753 4003 c0 -9 4 -10 14 -2 7 6 13 12 13 14 0 1 -6 2 -13 2 -8 0
-14 -6 -14 -14z"/>
<path d="M5599 4008 c-5 -19 -8 -50 -4 -46 7 7 15 48 9 48 -2 0 -4 -1 -5 -2z"/>
<path d="M5506 3945 c4 -8 11 -15 16 -15 6 0 5 6 -2 15 -7 8 -14 15 -16 15 -2
0 -1 -7 2 -15z"/>
<path d="M6755 3950 c-3 -5 -1 -10 4 -10 6 0 11 5 11 10 0 6 -2 10 -4 10 -3 0
-8 -4 -11 -10z"/>
<path d="M5476 3932 c-3 -5 1 -9 9 -9 8 0 12 4 9 9 -3 4 -7 8 -9 8 -2 0 -6 -4
-9 -8z"/>
<path d="M5675 3909 c-3 -4 2 -6 10 -5 21 3 28 13 10 13 -9 0 -18 -4 -20 -8z"/>
<path d="M6733 3899 c-2 -23 3 -25 10 -4 4 8 3 16 -1 19 -4 3 -9 -4 -9 -15z"/>
<path d="M5496 3897 c3 -10 9 -15 12 -12 3 3 0 11 -7 18 -10 9 -11 8 -5 -6z"/>
<path d="M5619 3898 c-5 -18 -6 -38 -1 -34 7 8 12 36 6 36 -2 0 -4 -1 -5 -2z"/>
<path d="M5827 3889 c7 -7 15 -10 18 -7 3 3 -2 9 -12 12 -14 6 -15 5 -6 -5z"/>
<path d="M5579 3838 c-5 -18 -6 -38 -1 -34 7 8 12 36 6 36 -2 0 -4 -1 -5 -2z"/>
<path d="M6674 3819 c-3 -6 -2 -15 3 -20 5 -5 9 -1 9 11 0 23 -2 24 -12 9z"/>
<path d="M6035 3790 c-3 -5 -1 -10 4 -10 6 0 11 5 11 10 0 6 -2 10 -4 10 -3 0
-8 -4 -11 -10z"/>
<path d="M6739 3798 c-5 -18 -6 -38 -1 -34 7 8 12 36 6 36 -2 0 -4 -1 -5 -2z"/>
<path d="M1940 3776 c0 -2 8 -10 18 -17 15 -13 16 -12 3 4 -13 16 -21 21 -21
13z"/>
<path d="M2107 3769 c7 -7 15 -10 18 -7 3 3 -2 9 -12 12 -14 6 -15 5 -6 -5z"/>
<path d="M5499 3778 c-5 -18 -6 -38 -1 -34 7 8 12 36 6 36 -2 0 -4 -1 -5 -2z"/>
<path d="M6670 3770 c0 -5 5 -10 11 -10 5 0 7 5 4 10 -3 6 -8 10 -11 10 -2 0
-4 -4 -4 -10z"/>
<path d="M5359 3738 c-5 -18 -6 -38 -1 -34 7 8 12 36 6 36 -2 0 -4 -1 -5 -2z"/>
<path d="M6675 3730 c3 -5 8 -10 11 -10 2 0 4 5 4 10 0 6 -5 10 -11 10 -5 0
-7 -4 -4 -10z"/>
<path d="M5415 3710 c3 -5 8 -10 11 -10 2 0 4 5 4 10 0 6 -5 10 -11 10 -5 0
-7 -4 -4 -10z"/>
<path d="M6134 3712 c4 -3 14 -7 22 -8 9 -1 13 0 10 4 -4 3 -14 7 -22 8 -9 1
-13 0 -10 -4z"/>
<path d="M2069 3693 c-13 -16 -12 -17 4 -4 9 7 17 15 17 17 0 8 -8 3 -21 -13z"/>
<path d="M5361 3686 c-9 -11 -9 -16 1 -22 7 -4 10 -4 6 1 -4 4 -3 14 3 22 6 7
9 13 6 13 -2 0 -10 -6 -16 -14z"/>
<path d="M6680 3670 c-12 -7 -10 -9 7 -7 12 0 19 5 17 9 -6 10 -6 10 -24 -2z"/>
<path d="M5473 3655 c0 -8 4 -12 9 -9 5 3 6 10 3 15 -9 13 -12 11 -12 -6z"/>
<path d="M6195 3629 c-3 -4 2 -6 10 -5 21 3 28 13 10 13 -9 0 -18 -4 -20 -8z"/>
<path d="M5375 3610 c-3 -5 -1 -10 4 -10 6 0 11 5 11 10 0 6 -2 10 -4 10 -3 0
-8 -4 -11 -10z"/>
<path d="M6270 3589 c0 -5 5 -7 10 -4 6 3 10 8 10 11 0 2 -4 4 -10 4 -5 0 -10
-5 -10 -11z"/>
<path d="M5200 3576 c0 -2 7 -9 15 -16 13 -11 14 -10 9 4 -5 14 -24 23 -24 12z"/>
<path d="M5330 3550 c0 -5 5 -10 11 -10 5 0 7 5 4 10 -3 6 -8 10 -11 10 -2 0
-4 -4 -4 -10z"/>
<path d="M5200 3530 c-12 -7 -10 -9 7 -7 12 0 19 5 17 9 -6 10 -6 10 -24 -2z"/>
<path d="M6233 3525 c0 -8 4 -12 9 -9 5 3 6 10 3 15 -9 13 -12 11 -12 -6z"/>
<path d="M5310 3506 c0 -2 8 -10 18 -17 15 -13 16 -12 3 4 -13 16 -21 21 -21
13z"/>
<path d="M6306 3492 c-2 -4 4 -8 14 -8 10 0 16 4 14 8 -3 4 -9 8 -14 8 -5 0
-11 -4 -14 -8z"/>
<path d="M6716 3483 c-6 -14 -5 -15 5 -6 7 7 10 15 7 18 -3 3 -9 -2 -12 -12z"/>
<path d="M5150 3476 c0 -2 7 -7 16 -10 8 -3 12 -2 9 4 -6 10 -25 14 -25 6z"/>
<path d="M5130 3466 c0 -2 8 -10 18 -17 15 -13 16 -12 3 4 -13 16 -21 21 -21
13z"/>
<path d="M5256 3428 c3 -4 11 -5 19 -1 21 7 19 12 -4 10 -11 0 -18 -5 -15 -9z"/>
<path d="M5039 3363 c-12 -16 -12 -17 2 -6 9 7 20 9 24 5 5 -4 5 -1 1 6 -9 16
-11 15 -27 -5z"/>
<path d="M5030 3326 c0 -2 8 -10 18 -17 15 -13 16 -12 3 4 -13 16 -21 21 -21
13z"/>
<path d="M5014 3290 c0 -13 4 -16 10 -10 7 7 7 13 0 20 -6 6 -10 3 -10 -10z"/>
<path d="M6755 3299 c-4 -6 -5 -12 -2 -15 2 -3 7 2 10 11 7 17 1 20 -8 4z"/>
<path d="M5107 3289 c7 -7 15 -10 18 -7 3 3 -2 9 -12 12 -14 6 -15 5 -6 -5z"/>
<path d="M4969 3253 c-13 -16 -12 -17 4 -4 9 7 17 15 17 17 0 8 -8 3 -21 -13z"/>
<path d="M5000 3250 c-9 -6 -10 -10 -3 -10 6 0 15 5 18 10 8 12 4 12 -15 0z"/>
<path d="M4990 3226 c0 -2 8 -10 18 -17 15 -13 16 -12 3 4 -13 16 -21 21 -21
13z"/>
<path d="M5010 3150 c0 -5 5 -10 11 -10 5 0 7 5 4 10 -3 6 -8 10 -11 10 -2 0
-4 -4 -4 -10z"/>
<path d="M4890 3146 c0 -2 8 -10 18 -17 15 -13 16 -12 3 4 -13 16 -21 21 -21
13z"/>
<path d="M4920 3110 c-9 -6 -10 -10 -3 -10 6 0 15 5 18 10 8 12 4 12 -15 0z"/>
<path d="M4970 3110 c0 -5 5 -10 11 -10 5 0 7 5 4 10 -3 6 -8 10 -11 10 -2 0
-4 -4 -4 -10z"/>
<path d="M4833 3082 c-8 -14 -8 -19 1 -19 7 0 13 9 13 19 1 10 1 18 0 18 -1 0
-7 -8 -14 -18z"/>
<path d="M4955 3069 c-3 -4 2 -6 10 -5 21 3 28 13 10 13 -9 0 -18 -4 -20 -8z"/>
<path d="M4895 3030 c3 -5 8 -10 11 -10 2 0 4 5 4 10 0 6 -5 10 -11 10 -5 0
-7 -4 -4 -10z"/>
<path d="M4935 3031 c-3 -5 -2 -12 3 -15 5 -3 9 1 9 9 0 17 -3 19 -12 6z"/>
<path d="M1785 3010 c-3 -6 1 -7 9 -4 18 7 21 14 7 14 -6 0 -13 -4 -16 -10z"/>
<path d="M4833 3003 c0 -9 4 -10 14 -2 7 6 13 12 13 14 0 1 -6 2 -13 2 -8 0
-14 -6 -14 -14z"/>
<path d="M4756 2963 c-6 -14 -5 -15 5 -6 7 7 10 15 7 18 -3 3 -9 -2 -12 -12z"/>
<path d="M4776 2923 c-6 -14 -5 -15 5 -6 7 7 10 15 7 18 -3 3 -9 -2 -12 -12z"/>
<path d="M4827 2929 c7 -7 15 -10 18 -7 3 3 -2 9 -12 12 -14 6 -15 5 -6 -5z"/>
<path d="M3328 2776 c-7 -14 -17 -25 -23 -25 -5 -1 -10 -11 -10 -23 0 -18 5
-22 22 -20 18 2 21 -1 17 -20 -4 -21 -4 -21 5 -3 11 26 4 38 -20 32 -14 -4
-19 0 -19 15 0 10 4 16 10 13 5 -3 15 5 21 19 7 14 16 23 22 19 6 -3 7 -1 3 5
-10 17 -14 15 -28 -12z"/>
<path d="M3280 2769 c0 -5 5 -7 10 -4 6 3 10 8 10 11 0 2 -4 4 -10 4 -5 0 -10
-5 -10 -11z"/>
<path d="M4719 2763 c-13 -16 -12 -17 4 -4 16 13 21 21 13 21 -2 0 -10 -8 -17
-17z"/>
<path d="M3256 2753 c-6 -14 -5 -15 5 -6 7 7 10 15 7 18 -3 3 -9 -2 -12 -12z"/>
<path d="M3370 2749 c0 -5 5 -7 10 -4 6 3 10 8 10 11 0 2 -4 4 -10 4 -5 0 -10
-5 -10 -11z"/>
<path d="M1756 2728 c3 -5 10 -6 15 -3 13 9 11 12 -6 12 -8 0 -12 -4 -9 -9z"/>
<path d="M3346 2726 c10 -8 21 -12 24 -10 5 6 -21 24 -34 24 -6 0 -1 -6 10
-14z"/>
<path d="M4560 2730 c-9 -6 -10 -10 -3 -10 6 0 15 5 18 10 8 12 4 12 -15 0z"/>
<path d="M3270 2712 c0 -6 7 -17 15 -25 8 -8 11 -18 7 -22 -4 -5 -1 -5 6 -1
11 6 10 12 -5 29 -10 12 -19 24 -20 26 -2 2 -3 -1 -3 -7z"/>
<path d="M4674 2712 c4 -3 14 -7 22 -8 9 -1 13 0 10 4 -4 3 -14 7 -22 8 -9 1
-13 0 -10 -4z"/>
<path d="M3231 2698 c-1 -20 14 -24 25 -6 4 6 3 8 -4 4 -5 -3 -13 0 -15 6 -3
8 -6 6 -6 -4z"/>
<path d="M3390 2691 c0 -6 4 -13 10 -16 6 -3 7 1 4 9 -7 18 -14 21 -14 7z"/>
<path d="M3354 2675 c1 -8 6 -18 11 -22 4 -5 5 -2 0 6 -6 11 -4 13 8 8 23 -9
21 0 -2 13 -15 7 -19 7 -17 -5z"/>
<path d="M3172 2654 c-1 -13 0 -24 2 -24 7 0 14 40 7 44 -4 3 -8 -6 -9 -20z"/>
<path d="M3214 2672 c3 -5 1 -12 -6 -14 -6 -2 -12 -12 -14 -22 -1 -10 0 -16 3
-13 2 3 5 9 5 14 1 4 8 13 16 19 12 9 12 13 2 19 -8 5 -11 4 -6 -3z"/>
<path d="M3255 2649 c-6 -8 -4 -10 5 -4 10 6 12 4 6 -11 -6 -15 -5 -17 5 -6 9
9 10 15 2 23 -8 8 -13 7 -18 -2z"/>
<path d="M3313 2653 c4 -3 3 -11 -3 -17 -6 -8 -3 -12 9 -12 12 0 17 6 13 18
-2 10 -9 18 -15 18 -6 0 -7 -3 -4 -7z"/>
<path d="M3390 2633 c1 -13 30 -48 30 -36 0 7 -5 15 -10 18 -6 4 -8 11 -5 16
4 5 1 9 -4 9 -6 0 -11 -3 -11 -7z"/>
<path d="M4510 2626 c7 -7 13 -7 20 0 6 6 3 10 -10 10 -13 0 -16 -4 -10 -10z"/>
<path d="M3106 2612 c-3 -5 1 -9 9 -9 8 0 12 4 9 9 -3 4 -7 8 -9 8 -2 0 -6 -4
-9 -8z"/>
<path d="M3170 2611 c0 -6 4 -13 10 -16 6 -3 7 1 4 9 -7 18 -14 21 -14 7z"/>
<path d="M3287 2609 c7 -7 15 -10 18 -7 3 3 -2 9 -12 12 -14 6 -15 5 -6 -5z"/>
<path d="M4470 2611 c0 -6 4 -12 8 -15 5 -3 9 1 9 9 0 8 -4 15 -9 15 -4 0 -8
-4 -8 -9z"/>
<path d="M3235 2592 c3 -3 -1 -12 -7 -21 -8 -10 -4 -9 10 3 26 23 26 23 7 23
-8 0 -13 -3 -10 -5z"/>
<path d="M3087 2568 c9 -10 17 -18 17 -18 1 0 2 8 2 18 0 10 -8 18 -18 18 -16
0 -16 -2 -1 -18z"/>
<path d="M3329 2574 c-16 -19 -22 -51 -11 -58 5 -3 8 5 7 17 -1 12 5 30 13 40
8 9 13 17 10 17 -3 0 -12 -7 -19 -16z"/>
<path d="M3367 2572 c-20 -22 -21 -32 -5 -32 6 0 8 3 5 7 -4 3 0 15 10 25 9
10 14 18 11 18 -3 0 -12 -8 -21 -18z"/>
<path d="M3135 2570 c-2 -3 5 -7 16 -7 10 -1 19 2 19 6 0 9 -29 10 -35 1z"/>
<path d="M3259 2563 c-13 -16 -12 -17 4 -4 16 13 21 21 13 21 -2 0 -10 -8 -17
-17z"/>
<path d="M4574 2566 c1 -8 5 -18 8 -22 4 -3 5 1 4 10 -1 8 -5 18 -8 22 -4 3
-5 -1 -4 -10z"/>
<path d="M3055 2550 c-4 -6 -1 -9 7 -8 7 2 12 -2 11 -7 -1 -6 9 -11 22 -11 13
0 21 4 18 9 -3 4 -8 6 -11 3 -3 -3 -13 1 -23 10 -11 10 -19 12 -24 4z"/>
<path d="M3133 2535 c0 -8 4 -12 9 -9 5 3 6 10 3 15 -9 13 -12 11 -12 -6z"/>
<path d="M3135 2499 c-4 -6 -5 -12 -2 -15 2 -3 7 2 10 11 7 17 1 20 -8 4z"/>
<path d="M3270 2506 c0 -2 8 -10 18 -17 15 -13 16 -12 3 4 -13 16 -21 21 -21
13z"/>
<path d="M3370 2489 c0 -5 5 -7 10 -4 6 3 10 8 10 11 0 2 -4 4 -10 4 -5 0 -10
-5 -10 -11z"/>
<path d="M4466 2488 c3 -4 9 -8 15 -8 5 0 9 4 9 8 0 5 -7 9 -15 9 -8 0 -12 -4
-9 -9z"/>
<path d="M2934 2428 c-3 -5 0 -7 8 -6 7 2 12 -2 11 -8 -1 -6 5 -11 12 -11 10
0 12 4 5 12 -5 7 -8 14 -5 17 3 2 -2 5 -10 5 -9 0 -18 -4 -21 -9z"/>
<path d="M3130 2430 c0 -5 5 -10 11 -10 5 0 7 5 4 10 -3 6 -8 10 -11 10 -2 0
-4 -4 -4 -10z"/>
<path d="M3295 2430 c3 -5 8 -10 11 -10 2 0 4 5 4 10 0 6 -5 10 -11 10 -5 0
-7 -4 -4 -10z"/>
<path d="M2915 2401 c-3 -5 -2 -12 3 -15 5 -3 9 1 9 9 0 17 -3 19 -12 6z"/>
<path d="M4310 2396 c0 -2 7 -7 16 -10 8 -3 12 -2 9 4 -6 10 -25 14 -25 6z"/>
<path d="M3349 2373 c-13 -16 -12 -17 4 -4 16 13 21 21 13 21 -2 0 -10 -8 -17
-17z"/>
<path d="M2876 2371 c-3 -5 2 -15 12 -22 15 -12 16 -12 5 2 -7 9 -10 19 -6 22
3 4 4 7 0 7 -3 0 -8 -4 -11 -9z"/>
<path d="M4355 2370 c-3 -5 -1 -10 4 -10 6 0 11 5 11 10 0 6 -2 10 -4 10 -3 0
-8 -4 -11 -10z"/>
<path d="M4390 2369 c0 -5 5 -7 10 -4 6 3 10 8 10 11 0 2 -4 4 -10 4 -5 0 -10
-5 -10 -11z"/>
<path d="M3390 2350 c0 -5 5 -10 11 -10 5 0 7 5 4 10 -3 6 -8 10 -11 10 -2 0
-4 -4 -4 -10z"/>
<path d="M4296 2337 c3 -10 9 -15 12 -12 3 3 0 11 -7 18 -10 9 -11 8 -5 -6z"/>
<path d="M2946 2332 c-3 -5 1 -9 9 -9 8 0 15 4 15 9 0 4 -4 8 -9 8 -6 0 -12
-4 -15 -8z"/>
<path d="M4269 2313 c-13 -16 -12 -17 4 -4 9 7 17 15 17 17 0 8 -8 3 -21 -13z"/>
<path d="M3010 2289 c0 -5 5 -7 10 -4 6 3 10 8 10 11 0 2 -4 4 -10 4 -5 0 -10
-5 -10 -11z"/>
<path d="M2890 2270 c0 -5 5 -10 11 -10 5 0 7 5 4 10 -3 6 -8 10 -11 10 -2 0
-4 -4 -4 -10z"/>
<path d="M3495 2270 c3 -5 8 -10 11 -10 2 0 4 5 4 10 0 6 -5 10 -11 10 -5 0
-7 -4 -4 -10z"/>
<path d="M4390 2271 c0 -6 4 -13 10 -16 6 -3 7 1 4 9 -7 18 -14 21 -14 7z"/>
<path d="M4250 2249 c0 -5 5 -7 10 -4 6 3 10 8 10 11 0 2 -4 4 -10 4 -5 0 -10
-5 -10 -11z"/>
<path d="M2776 2217 c3 -10 9 -15 12 -12 3 3 0 11 -7 18 -10 9 -11 8 -5 -6z"/>
<path d="M3482 2174 c10 -10 20 -16 22 -13 3 3 -5 11 -17 18 -21 13 -21 12 -5
-5z"/>
<path d="M4136 2163 c-6 -14 -5 -15 5 -6 7 7 10 15 7 18 -3 3 -9 -2 -12 -12z"/>
<path d="M2675 2161 c-3 -5 -2 -12 3 -15 5 -3 9 1 9 9 0 17 -3 19 -12 6z"/>
<path d="M2710 2148 c0 -4 4 -8 9 -8 6 0 12 4 15 8 3 5 -1 9 -9 9 -8 0 -15 -4
-15 -9z"/>
<path d="M2816 2148 c3 -4 11 -5 19 -1 21 7 19 12 -4 10 -11 0 -18 -5 -15 -9z"/>
<path d="M3535 2150 c3 -5 8 -10 11 -10 2 0 4 5 4 10 0 6 -5 10 -11 10 -5 0
-7 -4 -4 -10z"/>
<path d="M4119 2123 c-13 -16 -12 -17 4 -4 16 13 21 21 13 21 -2 0 -10 -8 -17
-17z"/>
<path d="M2750 2115 c0 -7 30 -13 34 -7 3 4 -4 9 -15 9 -10 1 -19 0 -19 -2z"/>
<path d="M2586 2092 c-2 -4 4 -8 14 -8 10 0 16 4 14 8 -3 4 -9 8 -14 8 -5 0
-11 -4 -14 -8z"/>
<path d="M2630 2089 c0 -5 5 -7 10 -4 6 3 10 8 10 11 0 2 -4 4 -10 4 -5 0 -10
-5 -10 -11z"/>
<path d="M2730 2070 c0 -5 5 -10 11 -10 5 0 7 5 4 10 -3 6 -8 10 -11 10 -2 0
-4 -4 -4 -10z"/>
<path d="M4080 2070 c-9 -6 -10 -10 -3 -10 6 0 15 5 18 10 8 12 4 12 -15 0z"/>
<path d="M4175 2070 c3 -5 8 -10 11 -10 2 0 4 5 4 10 0 6 -5 10 -11 10 -5 0
-7 -4 -4 -10z"/>
<path d="M2531 2017 c-8 -10 -7 -14 2 -14 8 0 14 6 14 14 0 7 -1 13 -2 13 -2
0 -8 -6 -14 -13z"/>
<path d="M4039 2003 c-13 -16 -12 -17 4 -4 9 7 17 15 17 17 0 8 -8 3 -21 -13z"/>
<path d="M4080 2010 c-9 -6 -10 -10 -3 -10 6 0 15 5 18 10 8 12 4 12 -15 0z"/>
<path d="M2635 1989 c-3 -4 2 -6 10 -5 21 3 28 13 10 13 -9 0 -18 -4 -20 -8z"/>
<path d="M1436 1963 c-6 -14 -5 -15 5 -6 7 7 10 15 7 18 -3 3 -9 -2 -12 -12z"/>
<path d="M2479 1978 c-7 -23 -4 -35 7 -35 9 0 11 4 4 12 -5 7 -7 15 -3 18 3 4
3 7 0 7 -4 0 -7 -1 -8 -2z"/>
<path d="M4026 1968 c3 -5 10 -6 15 -3 13 9 11 12 -6 12 -8 0 -12 -4 -9 -9z"/>
<path d="M2549 1933 c-13 -16 -12 -17 4 -4 16 13 21 21 13 21 -2 0 -10 -8 -17
-17z"/>
<path d="M2433 1922 c-8 -14 -8 -19 1 -19 7 0 13 9 13 19 1 10 1 18 0 18 -1 0
-7 -8 -14 -18z"/>
<path d="M3995 1920 c-4 -6 -11 -7 -17 -4 -7 4 -8 2 -4 -5 6 -9 11 -9 22 0 14
11 18 19 10 19 -3 0 -8 -5 -11 -10z"/>
<path d="M2550 1906 c0 -2 8 -10 18 -17 15 -13 16 -12 3 4 -13 16 -21 21 -21
13z"/>
<path d="M2393 1893 c4 -3 1 -13 -6 -22 -11 -14 -10 -14 5 -2 16 12 16 31 1
31 -4 0 -3 -3 0 -7z"/>
<path d="M2495 1870 c3 -5 8 -10 11 -10 2 0 4 5 4 10 0 6 -5 10 -11 10 -5 0
-7 -4 -4 -10z"/>
<path d="M2351 1857 c-8 -10 -7 -14 2 -14 8 0 14 6 14 14 0 7 -1 13 -2 13 -2
0 -8 -6 -14 -13z"/>
<path d="M2410 1849 c0 -5 5 -7 10 -4 6 3 10 8 10 11 0 2 -4 4 -10 4 -5 0 -10
-5 -10 -11z"/>
<path d="M2370 1809 c0 -5 5 -7 10 -4 6 3 10 8 10 11 0 2 -4 4 -10 4 -5 0 -10
-5 -10 -11z"/>
<path d="M3860 1816 c0 -2 8 -10 18 -17 15 -13 16 -12 3 4 -13 16 -21 21 -21
13z"/>
<path d="M4036 1777 c3 -10 9 -15 12 -12 3 3 0 11 -7 18 -10 9 -11 8 -5 -6z"/>
<path d="M2186 1692 c-3 -5 1 -9 9 -9 8 0 12 4 9 9 -3 4 -7 8 -9 8 -2 0 -6 -4
-9 -8z"/>
<path d="M2333 1681 c0 -11 5 -18 9 -15 4 3 5 11 1 19 -7 21 -12 19 -10 -4z"/>
<path d="M2173 1655 c0 -8 4 -12 9 -9 5 3 6 10 3 15 -9 13 -12 11 -12 -6z"/>
<path d="M2175 1619 c-4 -6 -5 -12 -2 -15 2 -3 7 2 10 11 7 17 1 20 -8 4z"/>
<path d="M2234 1602 c4 -7 2 -21 -5 -30 -12 -15 -11 -15 6 0 16 15 17 20 6 30
-11 11 -13 10 -7 0z"/>
<path d="M2046 1535 c-18 -14 -18 -14 1 -12 11 0 20 7 20 14 0 7 -1 13 -1 13
-1 0 -9 -7 -20 -15z"/>
<path d="M2155 1509 c-3 -4 2 -6 10 -5 21 3 28 13 10 13 -9 0 -18 -4 -20 -8z"/>
<path d="M2013 1495 c0 -8 4 -15 9 -15 4 0 8 4 8 9 0 6 -4 12 -8 15 -5 3 -9
-1 -9 -9z"/>
<path d="M2133 1475 c0 -8 4 -12 9 -9 5 3 6 10 3 15 -9 13 -12 11 -12 -6z"/>
<path d="M1993 1445 c0 -8 4 -12 9 -9 4 3 8 9 8 15 0 5 -4 9 -8 9 -5 0 -9 -7
-9 -15z"/>
<path d="M2020 1456 c0 -2 8 -10 18 -17 15 -13 16 -12 3 4 -13 16 -21 21 -21
13z"/>
<path d="M1899 1403 c-13 -16 -12 -17 4 -4 9 7 17 15 17 17 0 8 -8 3 -21 -13z"/>
<path d="M2035 1361 c-3 -5 -2 -12 3 -15 5 -3 9 1 9 9 0 17 -3 19 -12 6z"/>
<path d="M1845 1329 c-3 -4 2 -6 10 -5 21 3 28 13 10 13 -9 0 -18 -4 -20 -8z"/>
<path d="M1828 1309 c6 -9 9 -18 6 -22 -3 -3 1 -4 10 -3 8 1 18 5 21 9 3 4 2
5 -2 2 -3 -3 -16 3 -27 12 -15 14 -18 14 -8 2z"/>
<path d="M1935 1310 c3 -5 8 -10 11 -10 2 0 4 5 4 10 0 6 -5 10 -11 10 -5 0
-7 -4 -4 -10z"/>
<path d="M1993 1295 c0 -8 4 -12 9 -9 5 3 6 10 3 15 -9 13 -12 11 -12 -6z"/>
<path d="M1934 1266 c1 -8 5 -18 8 -22 4 -3 5 1 4 10 -1 8 -5 18 -8 22 -4 3
-5 -1 -4 -10z"/>
<path d="M1766 1252 c-3 -5 1 -9 9 -9 8 0 12 4 9 9 -3 4 -7 8 -9 8 -2 0 -6 -4
-9 -8z"/>
<path d="M1894 1246 c1 -8 5 -18 8 -22 4 -3 5 1 4 10 -1 8 -5 18 -8 22 -4 3
-5 -1 -4 -10z"/>
<path d="M1855 1230 c3 -5 8 -10 11 -10 2 0 4 5 4 10 0 6 -5 10 -11 10 -5 0
-7 -4 -4 -10z"/>
<path d="M1814 1166 c1 -8 5 -18 8 -22 4 -3 5 1 4 10 -1 8 -5 18 -8 22 -4 3
-5 -1 -4 -10z"/>
<path d="M1699 1038 c-5 -18 -6 -38 -1 -34 7 8 12 36 6 36 -2 0 -4 -1 -5 -2z"/>
<path d="M1010 1016 c0 -2 7 -7 16 -10 8 -3 12 -2 9 4 -6 10 -25 14 -25 6z"/>
<path d="M1839 1003 c-13 -16 -12 -17 4 -4 16 13 21 21 13 21 -2 0 -10 -8 -17
-17z"/>
<path d="M1610 989 c0 -5 5 -7 10 -4 6 3 10 8 10 11 0 2 -4 4 -10 4 -5 0 -10
-5 -10 -11z"/>
<path d="M1555 970 c3 -5 8 -10 11 -10 2 0 4 5 4 10 0 6 -5 10 -11 10 -5 0 -7
-4 -4 -10z"/>
<path d="M1506 928 c3 -5 10 -6 15 -3 13 9 11 12 -6 12 -8 0 -12 -4 -9 -9z"/>
<path d="M1430 910 c0 -5 9 -8 20 -7 21 1 18 10 -5 13 -8 1 -15 -2 -15 -6z"/>
<path d="M1470 811 c0 -6 4 -13 10 -16 6 -3 7 1 4 9 -7 18 -14 21 -14 7z"/>
</g>
</svg>
